{
	"asset":{
		"generator":"Khronos glTF Blender I/O v4.5.47",
		"version":"2.0"
	},
	"scene":0,
	"scenes":[
		{
			"name":"Scene",
			"nodes":[
				0
			]
		}
	],
	"nodes":[
		{
			"mesh":0,
			"name":"bison",
			"rotation":[
				-0.5635207295417786,
				-0.5403071641921997,
				0.45614489912986755,
				0.42713505029678345
			],
			"translation":[
				0,
				1.6288281679153442,
				-0.39777469635009766
			]
		}
	],
	"materials":[
		{
			"doubleSided":true,
			"name":"textures",
			"pbrMetallicRoughness":{
				"baseColorTexture":{
					"index":0
				},
				"metallicFactor":0
			}
		}
	],
	"meshes":[
		{
			"name":"Circle.008",
			"primitives":[
				{
					"attributes":{
						"POSITION":0,
						"NORMAL":1,
						"TEXCOORD_0":2
					},
					"indices":3,
					"material":0
				}
			]
		}
	],
	"textures":[
		{
			"sampler":0,
			"source":0
		}
	],
	"images":[
		{
			"bufferView":4,
			"mimeType":"image/jpeg",
			"name":"textures"
		}
	],
	"accessors":[
		{
			"bufferView":0,
			"componentType":5126,
			"count":1064,
			"max":[
				1.4386910200119019,
				1.7708407640457153,
				1.3029817342758179
			],
			"min":[
				-0.9822627902030945,
				-1.929537296295166,
				-1.4269191026687622
			],
			"type":"VEC3"
		},
		{
			"bufferView":1,
			"componentType":5126,
			"count":1064,
			"type":"VEC3"
		},
		{
			"bufferView":2,
			"componentType":5126,
			"count":1064,
			"type":"VEC2"
		},
		{
			"bufferView":3,
			"componentType":5123,
			"count":1650,
			"type":"SCALAR"
		}
	],
	"bufferViews":[
		{
			"buffer":0,
			"byteLength":12768,
			"byteOffset":0,
			"target":34962
		},
		{
			"buffer":0,
			"byteLength":12768,
			"byteOffset":12768,
			"target":34962
		},
		{
			"buffer":0,
			"byteLength":8512,
			"byteOffset":25536,
			"target":34962
		},
		{
			"buffer":0,
			"byteLength":3300,
			"byteOffset":34048,
			"target":34963
		},
		{
			"buffer":0,
			"byteLength":371812,
			"byteOffset":37348
		}
	],
	"samplers":[
		{
			"magFilter":9729,
			"minFilter":9987
		}
	],
	"buffers":[
		{
			"byteLength":409160,
			"uri":"data:application/octet-stream;base64,"
		}
	]
}
