{
	"asset":{
		"generator":"Khronos glTF Blender I/O v4.5.47",
		"version":"2.0"
	},
	"scene":0,
	"scenes":[
		{
			"name":"Scene",
			"nodes":[
				0
			]
		}
	],
	"nodes":[
		{
			"mesh":0,
			"name":"environment",
			"rotation":[
				0,
				0.16464819014072418,
				0,
				0.9863523840904236
			],
			"translation":[
				0,
				0.7462925314903259,
				0
			]
		}
	],
	"materials":[
		{
			"doubleSided":true,
			"name":"textures",
			"pbrMetallicRoughness":{
				"baseColorTexture":{
					"index":0
				},
				"metallicFactor":0,
				"roughnessFactor":0.5
			}
		}
	],
	"meshes":[
		{
			"name":"Circle.009",
			"primitives":[
				{
					"attributes":{
						"POSITION":0,
						"NORMAL":1,
						"TEXCOORD_0":2
					},
					"indices":3,
					"material":0
				}
			]
		}
	],
	"textures":[
		{
			"sampler":0,
			"source":0
		}
	],
	"images":[
		{
			"bufferView":4,
			"mimeType":"image/jpeg",
			"name":"textures"
		}
	],
	"accessors":[
		{
			"bufferView":0,
			"componentType":5126,
			"count":1890,
			"max":[
				8.691774368286133,
				4.743376731872559,
				13.47201919555664
			],
			"min":[
				-15.13221549987793,
				-1.5356501340866089,
				-8.629751205444336
			],
			"type":"VEC3"
		},
		{
			"bufferView":1,
			"componentType":5126,
			"count":1890,
			"type":"VEC3"
		},
		{
			"bufferView":2,
			"componentType":5126,
			"count":1890,
			"type":"VEC2"
		},
		{
			"bufferView":3,
			"componentType":5123,
			"count":6978,
			"type":"SCALAR"
		}
	],
	"bufferViews":[
		{
			"buffer":0,
			"byteLength":22680,
			"byteOffset":0,
			"target":34962
		},
		{
			"buffer":0,
			"byteLength":22680,
			"byteOffset":22680,
			"target":34962
		},
		{
			"buffer":0,
			"byteLength":15120,
			"byteOffset":45360,
			"target":34962
		},
		{
			"buffer":0,
			"byteLength":13956,
			"byteOffset":60480,
			"target":34963
		},
		{
			"buffer":0,
			"byteLength":371812,
			"byteOffset":74436
		}
	],
	"samplers":[
		{
			"magFilter":9729,
			"minFilter":9987
		}
	],
	"buffers":[
		{
			"byteLength":446248,
			"uri":"data:application/octet-stream;base64,"
		}
	]
}
