{
	"asset":{
		"generator":"Khronos glTF Blender I/O v4.5.47",
		"version":"2.0"
	},
	"scene":0,
	"scenes":[
		{
			"name":"Scene",
			"nodes":[
				0
			]
		}
	],
	"nodes":[
		{
			"mesh":0,
			"name":"wolf",
			"rotation":[
				-0.7131240367889404,
				-0.6484344601631165,
				0.21647250652313232,
				0.15532711148262024
			],
			"translation":[
				0.042715638875961304,
				0.7786969542503357,
				0
			]
		}
	],
	"materials":[
		{
			"doubleSided":true,
			"name":"textures",
			"pbrMetallicRoughness":{
				"baseColorTexture":{
					"index":0
				},
				"metallicFactor":0
			}
		}
	],
	"meshes":[
		{
			"name":"Circle.005",
			"primitives":[
				{
					"attributes":{
						"POSITION":0,
						"NORMAL":1,
						"TEXCOORD_0":2
					},
					"indices":3,
					"material":0
				}
			]
		}
	],
	"textures":[
		{
			"sampler":0,
			"source":0
		}
	],
	"images":[
		{
			"bufferView":4,
			"mimeType":"image/jpeg",
			"name":"textures"
		}
	],
	"accessors":[
		{
			"bufferView":0,
			"componentType":5126,
			"count":1374,
			"max":[
				0.8766369819641113,
				0.9037854671478271,
				0.3874002695083618
			],
			"min":[
				-0.647445559501648,
				-1.0930719375610352,
				-0.3286046087741852
			],
			"type":"VEC3"
		},
		{
			"bufferView":1,
			"componentType":5126,
			"count":1374,
			"type":"VEC3"
		},
		{
			"bufferView":2,
			"componentType":5126,
			"count":1374,
			"type":"VEC2"
		},
		{
			"bufferView":3,
			"componentType":5123,
			"count":2070,
			"type":"SCALAR"
		}
	],
	"bufferViews":[
		{
			"buffer":0,
			"byteLength":16488,
			"byteOffset":0,
			"target":34962
		},
		{
			"buffer":0,
			"byteLength":16488,
			"byteOffset":16488,
			"target":34962
		},
		{
			"buffer":0,
			"byteLength":10992,
			"byteOffset":32976,
			"target":34962
		},
		{
			"buffer":0,
			"byteLength":4140,
			"byteOffset":43968,
			"target":34963
		},
		{
			"buffer":0,
			"byteLength":371812,
			"byteOffset":48108
		}
	],
	"samplers":[
		{
			"magFilter":9729,
			"minFilter":9987
		}
	],
	"buffers":[
		{
			"byteLength":419920,
			"uri":"data:application/octet-stream;base64,"
		}
	]
}
